<?xml version="1.0" standalone="no"?><!DOCTYPE svg PUBLIC "-//W3C//DTD SVG 1.1//EN" "http://www.w3.org/Graphics/SVG/1.1/DTD/svg11.dtd"><svg class="icon" width="200px" height="43.01px" viewBox="0 0 4762 1024" version="1.1" xmlns="http://www.w3.org/2000/svg"><path d="M1039.013859 0h1531.697479v1024h-1531.697479v-1024z" fill="#DE2910" /><path d="M1293.077725 116.383193l32.268907 99.603362h104.981513l-84.759664 61.52605 32.268908 99.818487-84.759664-61.310924-84.759664 61.52605 32.268907-99.818487-84.759663-61.52605h104.981512l32.268908-99.818488z m273.210084-52.060504l-2.151261 34.420168 32.053782 12.692437-33.559664 8.605042-2.151261 34.420168-18.50084-29.257143-33.344538 8.605042L1530.79201 107.347899 1512.29117 78.090756l32.053782 12.692437L1566.287809 64.322689z m117.673949 111.65042l-15.704201 30.763025 24.524369 24.52437L1658.79201 225.667227l-15.919327 30.763025-5.378151-34.205042L1603.504616 217.062185l30.763025-15.704202-5.378152-33.989916 24.309244 24.52437 30.763025-15.919328zM1648.681086 316.020168l10.541177 32.914286h34.635294l-27.966387 20.221849L1676.432347 402.070588l-27.966387-20.436975-27.966386 20.221849 10.756302-32.699159-27.966387-20.221849h34.635295l10.756302-32.914286zM1566.072683 421.216807l-2.151261 34.420168 32.053782 12.692437-33.344538 8.605042-2.151261 34.420168-18.50084-29.257143-33.559664 8.605042L1530.361758 464.242017l-18.50084-29.257143 32.268908 12.692437L1566.072683 421.216807z" fill="#FFDE00" /></svg>