<?xml version="1.0" standalone="no"?><!DOCTYPE svg PUBLIC "-//W3C//DTD SVG 1.1//EN" "http://www.w3.org/Graphics/SVG/1.1/DTD/svg11.dtd"><svg class="icon" width="200px" height="196.92px" viewBox="0 0 1040 1024" version="1.1" xmlns="http://www.w3.org/2000/svg"><path fill="#333333" d="M543.976272 563.16224c0 0-130.918725-49.118698-237.007949-77.556377-19.088754-5.119601-262.551718-82.551134-89.237417-129.46256 33.878598-9.169847 110.829178-25.862018 252.884544-40.298821 44.709271-4.54348 132.047432-52.567239 39.501666-88.759533-18.34788-7.1744-47.40159-41.364083 73.358775-51.704592 29.344329-2.51324 80.131015-59.459207-16.929578-38.778188-97.05957 20.683065-42.887786 20.683065-95.931886 25.852808s-181.704388 36.193317-124.145461 51.703569c57.557904 15.513322 162.517397 28.438703 79.002308 51.703569-20.167319 5.619998-166.444846 16.720823-265.157056 40.502459C84.178191 324.707336-56.440453 409.773757 24.818245 550.235836c35.156708 60.772109 186.640818 154.355507 215.127615 177.191608C374.442064 835.239915 415.44492 916.325675 414.768515 916.470985l608.863095 0C1023.63161 916.470985 896.100028 687.252443 543.976272 563.16224z" /></svg>