<?xml version="1.0" standalone="no"?><!DOCTYPE svg PUBLIC "-//W3C//DTD SVG 1.1//EN" "http://www.w3.org/Graphics/SVG/1.1/DTD/svg11.dtd"><svg class="icon" width="200px" height="200.00px" viewBox="0 0 1024 1024" version="1.1" xmlns="http://www.w3.org/2000/svg"><path fill="#333333" d="M667.428571 446.171429c49.005714 0 91.245714 29.988571 109.531429 72.411429l68.388571 0c-20.48-78.994286-92.525714-137.325714-177.737143-137.325714L532.114286 381.257143c-114.834286-5.851429-267.885714-41.142857-378.697143-183.588571-7.131429-9.142857-21.942857-5.12-21.942857 8.228571l0 183.222857 0 46.811429 0 183.222857c0 13.348571 13.897143 17.188571 21.211429 8.228571 116.662857-147.748571 278.491429-178.468571 394.422857-181.028571L667.428571 446.171429 667.428571 446.171429zM903.314286 515.84c-12.617143 8.411429-32.182857 18.285714-48.457143 18.285714L613.302857 534.125714l-35.657143 0-168.96 0c-59.428571 0-108.068571 48.457143-108.068571 108.068571l0 1.462857c0 59.428571 48.457143 108.068571 108.068571 108.068571L667.428571 751.725714c85.211429 0 157.257143-58.514286 177.737143-137.325714l-68.205714 0c-18.102857 42.605714-60.342857 72.411429-109.531429 72.411429L408.685714 686.811429c-23.771429 0-43.154286-19.382857-43.154286-43.154286l0-1.462857c0-23.771429 19.382857-43.154286 43.154286-43.154286l168.96 0 35.657143 0 245.211429 0c15.542857 1.097143 33.28 10.24 44.982857 18.102857 2.56 1.828571 5.851429-0.182857 5.851429-3.108571l0-94.72C909.348571 515.84 905.874286 514.194286 903.314286 515.84z" /></svg>