<?xml version="1.0" standalone="no"?><!DOCTYPE svg PUBLIC "-//W3C//DTD SVG 1.1//EN" "http://www.w3.org/Graphics/SVG/1.1/DTD/svg11.dtd"><svg class="icon" width="200px" height="200.00px" viewBox="0 0 1024 1024" version="1.1" xmlns="http://www.w3.org/2000/svg"><path fill="#333333" d="M669.478126 914.477584l-0.814552 0.543376c-52.683896 51.434439-139.566686 51.434439-191.978383-0.543376-24.901133-25.226544-65.733097-25.226544-91.12337-0.978281l-0.652869 0.978281-0.651846 0.543376c-52.79339 51.434439-139.511427 51.434439-191.869912-0.543376-25.336038-25.66145-66.874083-25.226544-91.829452 0-13.973246 13.374612-36.20969 13.374612-50.237171 0-13.538341-14.570857-13.538341-36.263925 0-50.889017 38.275745-38.057781 97.538477-50.183959 148.264788-28.761044l2.066055 0.490164c15.332197 7.067976 29.306466 16.093537 40.831964 27.510564-0.543376-51.16224-3.044336-90.52576-11.526521-128.638799-10.168594-44.582381-29.794583-90.25356-66.657142-153.538909-9.568936-16.637935-4.02364-38.547944 13.156648-48.38908l1.957585-1.521656 67.308989-38.60218L245.722936 341.857948c0-11.852956 9.949606-21.421892 21.475104-21.421892l0.434905 0 94.984305 0 0-68.125587c0-11.553127 9.568936-20.877493 21.095457-20.877493l0.544399 0 96.286973 0L480.544079 132.807748c0-11.553127 9.568936-21.394263 21.748327-21.394263 11.580756 0 21.041222 9.841136 21.041222 21.394263l0 98.625228 96.615455 0c11.852956 0 21.421892 9.325389 21.421892 20.877493l0 0.544399 0 67.581188 95.255481 0c11.851932 0 21.801539 9.568936 21.801539 21.421892l0 0.543376 0 149.734256 68.831668 40.123836c17.181311 9.242502 22.726607 31.207769 13.374612 48.38908l-0.814552 0.543376c-30.664394 53.934376-49.367361 94.494141-60.7322 133.639696-10.600429 36.97103-14.679327 73.072249-16.093537 118.201076 18.105357 6.41613 34.198893 16.636912 48.334845 30.5549 25.28078 25.662473 67.091024 25.662473 92.373851 0 13.537318-13.374612 36.31816-13.374612 49.857525 0 14.134929 14.625092 14.134929 36.31816 0 50.889017-38.275745 38.058804-97.647971 50.238195-148.211577 29.251208l0 0c-16.692171-7.502881-31.806403-17.072841-44.094264-29.251208-25.009603-25.226544-65.949015-25.226544-91.340311-0.978281L669.478126 914.477584 669.478126 914.477584zM523.333628 438.201204 523.333628 438.201204l0 422.342004 4.024663 3.045359c24.738427 25.227568 65.624627 25.662473 90.796936 0.543376l1.033539-0.543376c20.496823-20.225647 46.485731-32.785707 73.126484-37.0795 1.685385-49.422619 6.5246-89.547479 18.431791-130.86756 10.819416-37.352723 26.533306-74.377988 51.161217-119.503744L523.333628 438.201204 523.333628 438.201204zM480.545102 833.358055 480.545102 833.358055 480.545102 438.201204 242.515894 576.136739c29.250184 54.694693 46.486754 98.026594 56.70856 142.718469 10.927887 47.62774 12.939707 95.582939 13.374612 159.847591 8.100492-3.316535 15.058974-7.502881 21.312398-14.570857l0.979304-0.543376 0.379647-0.217964C373.383454 825.964668 431.070294 813.894771 480.545102 833.358055L480.545102 833.358055zM288.349779 467.451388 288.349779 467.451388 484.569766 354.471221c11.036357-6.523577 24.683169-6.089695 35.231409 0L715.529975 467.451388l0-104.172571-95.092775 0-0.48914 0c-11.634991 0-20.932752-9.785877-20.932752-21.421892l0-67.798129c-64.482617 0-129.290645 0-193.610556 0l0 67.308989 0 0.490164c0 11.634991-9.622148 21.421892-21.693068 21.421892l-95.363951 0L288.347732 467.451388 288.349779 467.451388z" /></svg>