<?xml version="1.0" standalone="no"?><!DOCTYPE svg PUBLIC "-//W3C//DTD SVG 1.1//EN" "http://www.w3.org/Graphics/SVG/1.1/DTD/svg11.dtd"><svg class="icon" width="200px" height="200.00px" viewBox="0 0 1024 1024" version="1.1" xmlns="http://www.w3.org/2000/svg"><path fill="#333333" d="M765.952 301.056c3.072 2.048 6.656 3.584 9.728 6.144l9.728 6.656v11.776c0.512 33.792-3.584 61.952-12.288 83.968-8.192 19.968-19.968 34.816-36.352 44.032-10.752 38.912-24.064 75.264-41.984 105.984-20.992 34.816-48.64 61.952-88.064 76.288-17.408 6.656-62.464 9.216-105.472 8.704-41.472-0.512-83.456-4.608-99.84-12.288-35.84-16.384-60.928-44.032-79.872-78.336-16.384-29.184-28.16-63.488-37.888-99.328-16.896-8.704-29.184-23.552-37.888-44.032-9.216-22.016-13.312-51.2-12.8-85.504v-11.776l9.728-6.656 7.68-4.608c-10.752-134.656-6.656-184.32 43.52-241.664 97.792-79.872 322.048-77.312 421.376-4.608 66.56 64 71.168 135.168 50.688 245.248z m-205.824 374.272l1.536 30.72-18.432 30.208 25.6 167.424 104.96-224.256 159.744-5.632c82.432 77.824 135.168 206.848 122.368 326.144l-888.832 5.12c2.048-104.96 21.504-235.008 126.464-326.144l143.872 1.536 135.168 222.208 25.6-165.888-18.432-30.208 1.536-30.72c33.792-2.56 44.032-2.56 78.848-0.512z m119.808-422.4c-63.488 12.288-157.696 23.04-232.448-18.432-28.672-15.872-70.656 16.896-104.96 13.312-10.752 20.992-18.432 44.032-23.04 68.608l-3.584 19.968-20.48-2.048c-3.584-0.512-7.68 0-11.776 1.536-2.048 0.512-3.584 1.536-5.632 2.048 0.512 22.528 3.584 40.96 9.728 54.784 5.12 12.288 12.288 19.968 21.504 23.04l11.776 3.584 3.072 11.776c10.24 36.864 20.992 71.68 36.864 99.84 14.336 26.112 33.28 47.104 59.392 58.88 10.752 5.12 45.568 7.68 81.92 8.192 38.4 0.512 76.8-1.536 89.6-6.144 28.672-10.752 49.152-30.72 65.024-57.344 16.896-28.672 29.184-65.024 39.936-104.448l3.072-11.264 11.264-4.096c9.216-3.072 15.872-11.264 20.992-23.552 5.632-13.824 8.704-32.256 9.216-54.272-1.536-1.024-3.584-1.536-5.12-2.048-4.096-1.536-7.68-2.048-11.776-1.536l-19.968 1.024-3.584-19.456c-4.608-20.992-11.776-41.984-20.992-61.952z"  /></svg>