<?xml version="1.0" standalone="no"?><!DOCTYPE svg PUBLIC "-//W3C//DTD SVG 1.1//EN" "http://www.w3.org/Graphics/SVG/1.1/DTD/svg11.dtd"><svg class="icon" width="200px" height="200.00px" viewBox="0 0 1024 1024" version="1.1" xmlns="http://www.w3.org/2000/svg"><path fill="#333333" d="M983.414829 318.860641c-50.659504-124.026235-145.390218-223.490287-263.659691-276.580424C751.737148 15.927041 791.970517 0 835.849834 0 939.599475 0 1023.712162 88.270348 1023.712162 197.13711 1023.712162 243.127241 1008.552689 285.27953 983.414829 318.860641L983.414829 318.860641 983.414829 318.860641zM975.739147 536.850022c0 129.335249-48.356799 246.45337-126.712724 333.572366l64.859517 67.993754c8.635143 9.082891 13.944156 21.491911 13.944156 35.244175 0 27.504529-21.236055 49.700044-47.461303 49.700044-13.04866 0-24.945968-5.500906-33.517147-14.583797l-69.656818-73.110875C701.97314 990.930602 610.632519 1023.424324 512 1023.424324c-98.440627 0-189.589356-32.365794-264.683116-87.310888l-69.20907 72.663127C169.472672 1017.859454 157.5114 1023.424324 144.206884 1023.424324c-26.545068 0-47.973015-22.515335-47.973015-50.339684 0-13.880192 5.372978-26.481104 14.072084-35.627959l64.347804-67.482041C96.489725 782.919608 48.260853 665.993379 48.260853 536.913986c0-268.712849 207.62721-486.574302 463.739147-486.574302S975.739147 268.201137 975.739147 536.850022L975.739147 536.850022 975.739147 536.850022zM512 151.019052c-203.085764 0-367.793116 172.766819-367.793116 385.83097 0 213.192079 164.643388 386.022862 367.793116 386.022862 203.149728 0 367.793116-172.830783 367.793116-385.958898C879.793116 323.78587 715.149728 151.019052 512 151.019052L512 151.019052 512 151.019052zM714.510088 639.640202 501.318009 639.640202C471.894559 639.640202 448.03598 612.263602 448.03598 578.554563l0-261.612843C448.03598 283.232682 471.894559 255.856081 501.318009 255.856081c29.423449 0 53.282029 27.376601 53.282029 61.085639L554.600037 517.468924l159.910051 0C743.997501 517.468924 767.856081 544.845524 767.856081 578.554563 767.856081 612.263602 743.997501 639.640202 714.510088 639.640202L714.510088 639.640202 714.510088 639.640202zM41.480667 325.704791C15.767131 291.420076 0.287838 248.308327 0.287838 201.294772 0.287838 90.125305 86.191517 0 192.179899 0c44.774814 0 85.903679 16.182897 118.52533 43.175714C190.005122 97.417203 93.227559 198.992067 41.480667 325.704791L41.480667 325.704791 41.480667 325.704791z" /></svg>