<?xml version="1.0" standalone="no"?><!DOCTYPE svg PUBLIC "-//W3C//DTD SVG 1.1//EN" "http://www.w3.org/Graphics/SVG/1.1/DTD/svg11.dtd"><svg class="icon" width="200px" height="200.00px" viewBox="0 0 1024 1024" version="1.1" xmlns="http://www.w3.org/2000/svg"><path d="M642.206 405.6c-28.764-28.764-75.4-28.764-104.166 0L512 431.642 485.958 405.6c-28.764-28.764-75.4-28.764-104.166 0s-28.764 75.4 0 104.166l26.042 26.042L512 639.974l104.166-104.166 26.042-26.042c28.764-28.764 28.764-75.4-0.002-104.166z" fill="#FA004B" /><path d="M728.04 1024H295.96c-39.578 0-71.778-32.2-71.778-71.778V71.778C224.184 32.2 256.384 0 295.96 0h432.08c39.578 0 71.778 32.2 71.778 71.778V952.22c-0.002 39.58-32.2 71.78-71.778 71.78zM295.96 31.184c-22.382 0-40.592 18.21-40.592 40.592V952.22c0 22.384 18.21 40.592 40.592 40.592h432.08c22.382 0 40.592-18.21 40.592-40.592V71.778c0-22.384-18.21-40.592-40.592-40.592l-432.08-0.002z" fill="#232323" /><path d="M512.002 662.026l-141.232-141.232c-16.856-16.856-26.142-39.27-26.142-63.108 0-23.842 9.282-46.254 26.142-63.11 16.856-16.854 39.27-26.14 63.108-26.14s46.252 9.284 63.108 26.14l15.016 15.018 15.016-15.016c34.796-34.798 91.418-34.796 126.216-0.002 16.856 16.856 26.142 39.27 26.142 63.11 0 23.84-9.282 46.252-26.142 63.108l-141.232 141.232zM433.876 399.62c-15.51 0-30.09 6.04-41.058 17.008-10.966 10.964-17.006 25.546-17.006 41.058 0 15.51 6.04 30.092 17.006 41.056L512 617.924l119.182-119.182c10.966-10.964 17.006-25.546 17.006-41.056 0-15.512-6.04-30.094-17.006-41.058-22.64-22.642-59.476-22.642-82.116 0L512 453.694l-37.068-37.066c-10.966-10.97-25.546-17.008-41.056-17.008z" fill="#232323" /><path d="M306.044 92.97c8.16-8.16 21.39-8.16 29.55 0l0.434 0.434c8.16-8.16 21.39-8.16 29.55 0s8.16 21.39 0 29.55l-29.55 29.55-29.986-29.986c-8.158-8.156-8.158-21.388 0.002-29.548zM658.332 877.614c8.16-8.16 21.39-8.16 29.55 0l0.434 0.434c8.16-8.16 21.39-8.16 29.55 0s8.16 21.39 0 29.55l-29.55 29.55-29.986-29.986c-8.158-8.156-8.158-21.388 0.002-29.548z" fill="#FA004B" /></svg>