<?xml version="1.0" standalone="no"?><!DOCTYPE svg PUBLIC "-//W3C//DTD SVG 1.1//EN" "http://www.w3.org/Graphics/SVG/1.1/DTD/svg11.dtd"><svg class="icon" width="200px" height="200.00px" viewBox="0 0 1024 1024" version="1.1" xmlns="http://www.w3.org/2000/svg"><path fill="#333333" d="M849.260544 365.867008c-48.324608 5.844992-136.587264-4.3008-103.327744-55.052288 15.515648-9.035776 30.963712-16.195584 37.963776-16.195584 13.883392 0 25.1392-11.255808 25.1392-25.1392 0-13.887488-11.255808-25.143296-25.1392-25.143296-20.527104 0-46.57152 12.84096-66.031616 24.516608-16.031744-7.931904-25.755648-31.848448-25.755648-31.848448L102.4 237.0048 58.279936 195.91168l0 36.896768L16.367616 232.808448l0 136.204288 303.699968 0c46.012416 0 118.204416 25.556992 124.747776 94.42304-0.731136 4.972544-1.224704 10.00448-1.224704 15.136768 0 67.81952 65.755136 122.996736 146.57536 122.996736 46.227456 0 87.527424-18.049024 114.415616-46.176256 1.60768-1.683456 3.067904-3.448832 4.564992-5.208064l0.012288 0.063488c0 0 0.063488-0.135168 0.088064-0.172032C751.947776 393.095168 849.260544 365.867008 849.260544 365.867008zM525.2608 279.95136l119.431168 0c9.107456 0 16.504832 7.387136 16.504832 16.500736 0 9.107456-7.395328 16.500736-16.504832 16.500736l-119.431168 0c-9.111552 0-16.500736-7.391232-16.500736-16.500736C508.760064 287.340544 516.1472 279.95136 525.2608 279.95136zM525.2608 334.952448l119.431168 0c9.107456 0 16.504832 7.391232 16.504832 16.500736 0 9.111552-7.395328 16.500736-16.504832 16.500736l-119.431168 0c-9.111552 0-16.500736-7.387136-16.500736-16.500736C508.760064 342.34368 516.1472 334.952448 525.2608 334.952448zM590.168064 545.384448c-48.996352 0-90.396672-30.593024-90.396672-66.811904 0-36.216832 41.40032-66.824192 90.396672-66.824192 12.132352 0 23.795712 1.888256 34.48832 5.26336-11.280384 25.659392-31.379456 59.275264-51.724288 61.732864-10.336256 1.251328-17.70496 10.655744-16.451584 20.996096 1.155072 9.56416 9.291776 16.5888 18.700288 16.5888 0.759808 0 1.523712-0.04096 2.295808-0.135168 40.292352-4.888576 67.328-51.812352 80.47616-81.2032 13.971456 11.812864 22.616064 27.09504 22.616064 43.583488C680.568832 514.791424 639.168512 545.384448 590.168064 545.384448zM869.156864 385.755136c-111.044608 34.576384-132.00384 170.780672-132.00384 170.780672 44.335104 4.859904 52.38784 161.347584 52.38784 161.347584-14.880768 79.03232 124.915712 182.904832 191.72352 36.655104C1072.304128 555.251712 900.931584 391.819264 869.156864 385.755136z" /></svg>