<?xml version="1.0" standalone="no"?><!DOCTYPE svg PUBLIC "-//W3C//DTD SVG 1.1//EN" "http://www.w3.org/Graphics/SVG/1.1/DTD/svg11.dtd"><svg class="icon" width="200px" height="200.00px" viewBox="0 0 1024 1024" version="1.1" xmlns="http://www.w3.org/2000/svg"><path fill="#333333" d="M709.745736 62.389956 316.336692 62.389956c-46.366004 0-84.302011 37.936007-84.302011 84.302011l0 730.616066c0 46.366004 37.936007 84.302011 84.302011 84.302011l393.409045 0c46.366004 0 84.302011-37.936007 84.302011-84.302011L794.047748 146.691967C794.047748 100.325963 756.11174 62.389956 709.745736 62.389956zM400.638703 104.540961l224.805022 0 0 28.101012L400.638703 132.641973 400.638703 104.540961zM513.041726 905.409045c-31.038924 0-56.201-25.162076-56.201-56.201s25.162076-56.201 56.201-56.201c31.038924 0 56.201 25.162076 56.201 56.201S544.080649 905.409045 513.041726 905.409045zM737.846748 736.805022l-449.610044 0L288.236704 174.791955l449.610044 0L737.846748 736.805022z" /></svg>