<?xml version="1.0" standalone="no"?><!DOCTYPE svg PUBLIC "-//W3C//DTD SVG 1.1//EN" "http://www.w3.org/Graphics/SVG/1.1/DTD/svg11.dtd"><svg class="icon" width="200px" height="200.00px" viewBox="0 0 1024 1024" version="1.1" xmlns="http://www.w3.org/2000/svg"><path fill="#333333" d="M381.781333 863.207619l27.428571-85.040762 40.082286-76.848762c0 0-27.648-16.481524-52.004571-7.94819-10.971429 3.803429-19.943619 10.435048-26.965333 19.846095s-12.166095 21.674667-15.408762 36.717714c-9.191619 7.289905-16.164571 13.677714-20.918857 18.992762-5.705143-12.53181-10.532571-21.577143-14.457905-27.136l-10.581333-143.043048c-2.706286-34.377143-6.168381-51.053714-28.233143-52.809143s-33.670095 28.42819-33.621333 61.70819l2.169905 112.518095-43.25181-130.56c-10.849524-31.963429-26.428952-44.373333-46.738286-37.278476-20.528762 7.192381-25.916952 24.892952-16.286476 53.248l44.251429 130.194286-71.753143-102.521905c-15.018667-17.334857-36.156952-32.134095-53.150476-19.090286s-5.436952 44.056381 6.656 62.244571l67.120762 100.912762-73.801143-61.19619c-22.942476-19.894857-49.566476-15.993905-53.248-8.192-5.87581 12.483048-5.168762 34.328381 20.821333 57.002667l82.944 72.143238 101.229714 144.335238 10.630095 31.183238 136.167619-47.616-13.677714-40.228571C359.375238 908.312381 368.054857 888.880762 381.781333 863.207619zM927.573333 477.915429c-23.356952-1.682286-45.251048 3.632762-65.706667 15.896381s-39.643429 31.50019-57.539048 57.685333c-22.869333 6.436571-40.838095 12.8-53.857524 19.139048-0.682667-28.672-2.535619-49.980952-5.461333-63.926857l93.159619-282.794667c22.089143-68.169143 28.745143-102.985143-10.776381-124.489143-39.497143-21.504-84.918857 26.770286-111.104 90.575238l-84.699429 217.478095L654.189714 121.660952c5.046857-70.217143-14.09219-106.861714-57.392762-109.982476-43.715048-3.120762-67.754667 26.428952-72.240762 88.624762l-20.504381 285.93981L451.730286 130.730667c-14.262857-45.592381-41.813333-91.37981-83.651048-80.359619-41.862095 11.02019-44.860952 79.945143-36.693333 124.781714l45.104762 248.685714-88.771048-178.054095c-26.940952-57.002667-79.506286-71.460571-92.476952-59.513905C174.567619 205.287619 158.622476 247.759238 189.025524 312.56381l95.963429 204.068571c4.096-2.486857 8.606476-3.949714 13.750857-3.535238 24.088381 1.926095 27.91619 20.114286 30.866286 57.734095l11.459048 154.697143c-1.511619-2.974476-3.486476-6.265905 0.121905 1.633524 1.536 2.194286 1.145905 0.999619 0.341333-0.707048 4.656762-6.290286 3.34019-22.869333 13.092571-30.622476 8.338286-16.14019 20.455619-21.382095 32.889905-24.673524 23.30819-6.095238 34.06019-4.656762 34.06019-4.656762 26.624-9.337905 61.488762 16.432762 61.488762 16.432762l-43.812571 84.041143-29.988571 92.964571c-14.994286 28.038095-24.478476 49.322667-37.766095 67.193905l7.558095 22.235429 266.922667 19.139048 6.339048-88.429714c35.401143-21.23581 66.876952-51.46819 112.566857-89.33181l118.076952-140.385524 135.021714-114.371048C1017.929143 535.966476 979.504762 481.645714 927.573333 477.915429z" /></svg>