<?xml version="1.0" standalone="no"?><!DOCTYPE svg PUBLIC "-//W3C//DTD SVG 1.1//EN" "http://www.w3.org/Graphics/SVG/1.1/DTD/svg11.dtd"><svg class="icon" width="200px" height="200.00px" viewBox="0 0 1024 1024" version="1.1" xmlns="http://www.w3.org/2000/svg"><path fill="#333333" d="M710.4 243.2v537.6h249.6V243.2h-249.6z m124.8 446.8032a40 40 0 1 1 0-80 40 40 0 0 1 0 80z m86.3872-265.44h-172.7744v-51.808h172.7744v51.808z m0-84.2112h-172.7744v-51.84h172.7744v51.84zM64 677.0496h246.4v64.96h-121.6V780.8h326.4v-38.7904h-121.6v-64.96H640V243.2H64v433.8496z m288-21.0496a20.8 20.8 0 1 1 0-41.6 20.8 20.8 0 0 1 0 41.6zM102.4064 288.512h492.7808v309.1136H102.4064V288.512z" /></svg>