<?xml version="1.0" standalone="no"?><!DOCTYPE svg PUBLIC "-//W3C//DTD SVG 1.1//EN" "http://www.w3.org/Graphics/SVG/1.1/DTD/svg11.dtd"><svg class="icon" width="200px" height="200.00px" viewBox="0 0 1024 1024" version="1.1" xmlns="http://www.w3.org/2000/svg"><path fill="#333333" d="M887.12 230.2C850.432 180.472 791.72 180.48 745.864 169.424 740.352 139.968 668.8 0 637.608 1.848 606.424 3.688 628.432 23.944 633.944 86.56 619.256 69.992 586.24 7.368 573.4 38.68 541.808 115.688 628.432 224.68 626.6 243.096 624.768 261.504 618.552 335.216 584.4 349.904 571.552 355.432 450.48 360.952 316.552 434.616 182.616 508.28 155.104 611.416 125.736 721.92 117.832 751.664 114.968 779.48 115.592 804.992 110.312 809.032 104.008 816.864 97.08 831.672 80 868.176 110.712 906.368 148.232 920.176 156.128 932.584 164.76 942.808 173.448 950.28 211.96 983.424 347.744 972.368 364.24 977.888 380.76 983.416 432.12 1003.68 450.48 1003.68 468.808 1003.68 527.52 1009.2 527.52 987.104 527.52 937.376 477.976 911.592 477.976 911.592 477.976 911.592 507.344 895.024 547.712 871.072 588.072 847.136 613.744 810.312 628.432 808.472 656.704 804.92 654.128 900.544 674.304 922.64 694.496 944.736 714.208 1006.616 742.176 1016.568 763.08 1024 833.912 1014.728 839.424 992.632 844.92 970.528 830.256 968.688 815.56 948.432 800.888 928.168 784.4 847.136 799.056 815.832 813.736 784.52 843.088 653.768 846.768 598.528 850.432 543.272 848.584 506.448 877.944 432.776 925.648 414.36 940.32 366.48 942.168 342.536 944 318.6 923.808 279.928 887.12 230.2Z" /></svg>