<?xml version="1.0" standalone="no"?><!DOCTYPE svg PUBLIC "-//W3C//DTD SVG 1.1//EN" "http://www.w3.org/Graphics/SVG/1.1/DTD/svg11.dtd"><svg class="icon" width="200px" height="200.00px" viewBox="0 0 1024 1024" version="1.1" xmlns="http://www.w3.org/2000/svg"><path fill="#333333" d="M182.222848 438.153c8.925184 9.815 24.686592 25.175 53.584896 0 28.899328-25.174 58.062848-3.269 59.175936-7.625 1.11616-4.356 3.351552-25.082 33.49504-19.622 30.144512 5.455 35.726336-32.715 35.726336-32.715 16.750592-3.265 27.910144-43.064 27.910144-43.064-16.746496-1.625-88.198144-94.091-88.198144-94.091l-3.351552-31.842c-20.097024-13.088-88.48384-6.538-88.48384-6.538-0.128 0.067-0.17408 0.201-0.1536 0.388-7.783424 3.162-31.268864 19.481-44.388352 28.791l-37.792768-7.378 17.862656 32.703-16.746496 23.99c0 0 24.562688-6.546 36.839424-5.451 12.289024 1.091 30.148608 27.26 30.148608 27.26-31.261696-14.167-49.125376-10.082-49.125376-10.082-70.342656 46.623 3.351552 36.25 15.629312 38.703 12.280832 2.453 3.347456 16.079 3.347456 16.079-72.569856 35.984-39.077888 114.486-25.674752 114.486C155.426816 462.144 173.293568 428.347 182.222848 438.153zM243.898368 239.965c-6.334464 3.65-15.246336 4.542-24.723456 3.965-2.501632-7.445 6.624256-13.186 14.490624-16.63C239.967232 233.892 244.926464 239.375 243.898368 239.965zM294.979584 188.48 315.917312 148.322 281.585664 164.761 264.000512 133.694 242.230272 164.761 212.082688 148.322 222.968832 188.48ZM876.94336 304.607c-69.502976-10.632-163.28704-6.539-200.13056 78.501 0.012288-0.008 9.218048-127.574 140.68736-132.479 0 0-169.147392-71.968-189.248512 178.267L450.732032 396.73l-53.593088-33.252-31.8208 73.592 0 14.72 25.120768 0c0 0 28.464128 143.924 175.84128 55.606l8.3712 9.274c0 0-75.358208 88.861-197.614592-10.906 0 0-9.21088-22.9-4.187136-42.523 0 0-25.956352 8.179-18.42176-25.344 0 0-26.801152-14.725-49.405952 11.444 0 0-30.984192-8.175-63.639552 19.626 0 0-66.152448-17.174-76.203008 6.542-10.05056 23.707-15.905792 63.78 35.167232 121.027 51.08224 57.239 107.183104 157 174.174208 92.402 0 0 51.917824 101.401 149.890048-17.17 0 0 102.155264 19.623 169.146368-224.062 0 0 93.785088-50.705 145.702912 11.456 51.912704 62.145 44.386304 134.104 39.354368 142.278-5.02272 8.183 56.940544-64.597 28.473344-132.471-28.473344-67.875-159.936512-99.766-217.71264-56.427 0 0 65.31584-80.955 139.838464-68.687 74.522624 12.264 101.31968 44.15 104.667136 62.148C933.878784 406.008 946.441216 315.234 876.94336 304.607zM450.169856 746.727l-27.90912-4.373-23.999488 66.517c-22.887424 0-65.32096 7.634-56.38656 20.722 8.937472 13.08 58.062848-10.91 35.731456 7.633-22.324224 18.527-34.605056 55.599-18.976768 54.512 15.628288-1.087 41.30816-50.155 50.23744-55.599 8.933376-5.459 29.589504 16.347 29.589504 16.347-3.90656-14.168 0-83.958 0-83.958l16.187392 0C443.474944 759.799 450.169856 746.727 450.169856 746.727zM342.990848 740.181c-11.168768-8.726-4.468736-21.801-4.468736-21.801l-27.90912-4.364-24.003584 66.512c-22.890496 0-65.32096 7.63-56.390656 20.714 8.938496 13.08 58.062848-10.901 35.734528 7.629-22.331392 18.539-34.613248 55.607-18.98496 54.523 15.633408-1.086 41.312256-50.159 50.245632-55.605 8.933376-5.452 29.589504 16.356 29.589504 16.356-3.910656-14.171 0-83.964 0-83.964L342.990848 740.181z" /></svg>