<?xml version="1.0" standalone="no"?><!DOCTYPE svg PUBLIC "-//W3C//DTD SVG 1.1//EN" "http://www.w3.org/Graphics/SVG/1.1/DTD/svg11.dtd"><svg class="icon" width="200px" height="199.80px" viewBox="0 0 1025 1024" version="1.1" xmlns="http://www.w3.org/2000/svg"><path d="M941.8 1024H82.2C36.8 1024 0 987.2 0 941.8V82.2C0 36.8 36.8 0 82.2 0h859.6c45.4 0 82.2 36.8 82.2 82.2v859.6c0 45.4-36.8 82.2-82.2 82.2z" fill="#EF9B6C" /><path d="M680.1 303.2H503V121.9h16.2c88.8 0 160.8 72 160.8 160.8v20.5zM680.1 721.1H503v181.3h16.2c88.8 0 160.8-72 160.8-160.8v-20.5z" fill="#142E3F" /><path d="M955.8 500.8c-3.9-3-8.4-7.1-10.1-9.1C902.4 333.3 759.5 235 572.3 235c-176.3 0-324.4 90.4-364.2 211.8h-16.9l-42.3-79.5v0.6c-7.4-13.8-21.8-23.4-38.5-23.4-24.1 0-43.8 19.7-43.8 43.8v247.5c0 24.1 19.7 43.8 43.8 43.8 16.7 0 31.1-9.6 38.5-23.4v0.6l42.3-79.5h16.9c39.8 121.4 188 211.8 364.2 211.8 217.7 0 335.4-132.6 373.2-257.2 1.7-1.9 6.1-5.6 10-8.4 3.6-2.6 5.8-6.8 5.8-11.3 0.1-4.4-2-8.6-5.5-11.4zM427.9 648.9c4.1 6.7 2 15.4-4.6 19.6-2.3 1.4-4.9 2.1-7.4 2.1-4.8 0-9.4-2.4-12.1-6.8-28-45.4-42.8-97.8-42.8-151.7 0-54.7 15.3-107.9 44.1-153.9 4.2-6.6 12.9-8.6 19.6-4.5 6.6 4.2 8.6 12.9 4.5 19.6-26 41.4-39.8 89.4-39.8 138.7 0 48.7 13.3 96 38.5 136.9z m108.9 34.6c4.4 6.5 2.7 15.3-3.9 19.7-2.4 1.6-5.2 2.4-7.9 2.4-4.6 0-9.1-2.2-11.8-6.3-37.6-56-57.5-120.6-57.5-187 0-67.5 20.5-133.1 59.3-189.7 4.4-6.5 13.3-8.1 19.8-3.7 6.5 4.4 8.1 13.3 3.7 19.8-35.6 51.8-54.4 111.9-54.4 173.6 0 60.8 18.2 120 52.7 171.2z m382-161.2c-22.3 74.7-76.1 152.6-166.4 198.2-61-52.2-99.1-126.3-99.1-208.4 0-82.7 38.6-157.1 100.3-209.5 82 39.9 141.1 108.5 165.1 197.9 0.4 1.5 1.4 5.2 6.9 11.2-5.3 5.7-6.3 9-6.8 10.6z" fill="#142E3F" /><path d="M788.5 452.7m-27.2 0a27.2 27.2 0 1 0 54.4 0 27.2 27.2 0 1 0-54.4 0Z" fill="#142E3F" /></svg>