<?xml version="1.0" standalone="no"?><!DOCTYPE svg PUBLIC "-//W3C//DTD SVG 1.1//EN" "http://www.w3.org/Graphics/SVG/1.1/DTD/svg11.dtd"><svg class="icon" width="200px" height="200.00px" viewBox="0 0 1024 1024" version="1.1" xmlns="http://www.w3.org/2000/svg"><path d="M906.108461 60.415764c-47.035816 0-83.937672 52.443795-83.937673 52.443795s-34.809864-52.443795-83.957672-52.443795c-47.805813 0-86.841661 39.429846-89.39765 87.16766-1.439994 26.967895 7.255972 47.497814 19.505923 66.083741 24.477904 37.139855 131.495486 126.559506 154.009399 126.559506 22.97991 0 129.043496-89.089652 153.683399-126.559506 12.273952-18.675927 20.943918-39.115847 19.499924-66.083741-2.55599-47.739814-41.595838-87.16766-89.40565-87.16766" fill="#DE5E88" /><path d="M714.109211 468.738169v12.551951h216.633153v-12.551951c0-0.501998-0.647997-6.581974-0.665997-6.685974-9.893961-53.931789-28.09389-105.939586-53.007793-153.919399-24.349905 18.631927-45.819821 32.091875-54.741786 32.091875-22.511912 0-129.531494-89.415651-154.009399-126.555506-12.249952-18.589927-20.943918-39.115847-19.505923-66.083742 1.127996-21.069918 9.367963-40.511842 22.323912-55.667782-58.731771-32.383874-123.833516-50.955801-191.82525-50.955801 114.935551-0.002 234.799083 193.283245 234.799083 427.776329z" fill="#BBDCE3" /><path d="M714.109211 481.29412v-12.551951c0-234.493084-119.863532-427.782329-234.797083-427.782329-114.925551 0-234.799083 193.677243-234.799083 427.782329v12.551951h469.596166z" fill="#CFEB70" /><path d="M244.517045 481.29412v-12.551951c0-234.105086 119.875532-427.782329 234.799083-427.782329-219.523142 0-409.000402 193.471244-450.75624 421.092355-0.012 0.04-0.108 8.579966-0.223999 19.241925h216.181156z" fill="#BBDCE3" /><path d="M479.318128 868.286608c-15.645939 0-28.333889 12.68595-28.33389 28.33389v0.827996c0 31.573877-26.215898 57.257776-58.439771 57.257777-32.029875 0-58.085773-26.055898-58.085773-58.085773 0-15.649939-12.68795-28.333889-28.33389-28.33389-15.645939 0-28.333889 12.68595-28.333889 28.33389 0 63.275753 51.477799 114.755552 114.755552 114.755551 63.469752 0 115.10955-51.1058 115.10955-113.927555v-0.827996c-0.002-15.649939-12.69195-28.333889-28.337889-28.33389zM453.14823 802.568865c0.707997 1.727993 1.589994 3.371987 2.60599 4.901981 1.019996 1.557994 2.209991 3.003988 3.513986 4.305983a26.975895 26.975895 0 0 0 4.309983 3.513986c1.529994 1.019996 3.201987 1.897993 4.899981 2.60599a26.699896 26.699896 0 0 0 5.297979 1.615994c1.813993 0.367999 3.683986 0.565998 5.525979 0.565998 7.479971 0 14.789942-3.031988 20.059921-8.301968a27.123894 27.123894 0 0 0 3.513987-4.305983 28.631888 28.631888 0 0 0 4.217983-10.19996c0.367999-1.813993 0.537998-3.683986 0.537998-5.525979 0-1.841993-0.171999-3.711986-0.537998-5.553978a29.939883 29.939883 0 0 0-1.611994-5.297979 29.011887 29.011887 0 0 0-2.605989-4.873981 27.033894 27.033894 0 0 0-3.513987-4.305984c-6.573974-6.573974-16.377936-9.605962-25.5859-7.735969-1.813993 0.339999-3.597986 0.905996-5.297979 1.615993a29.039887 29.039887 0 0 0-4.899981 2.60599 26.975895 26.975895 0 0 0-4.309983 3.513986 27.123894 27.123894 0 0 0-3.513986 4.305984 28.867887 28.867887 0 0 0-2.60599 4.873981 29.989883 29.989883 0 0 0-1.611994 5.297979c-0.367999 1.841993-0.565998 3.711986-0.565998 5.553978s0.197999 3.711986 0.565998 5.525979c0.367999 1.813993 0.903996 3.597986 1.611994 5.297979zM1023.806001 146.071429c-3.417987-63.91975-55.115785-113.989555-117.69554-113.989554-35.411862 0-64.707747 20.147921-83.731673 38.027851-18.827926-17.88993-48.041812-38.027851-84.163672-38.027851-27.113894 0-52.175796 9.411963-72.161718 25.265901C606.111632 27.691892 543.397877 12.623951 479.316128 12.623951c-111.575564 0-222.259132 47.261815-311.662783 133.08148C81.753681 228.159109 22.495912 338.532678 0.757997 456.542217c-0.517998 2.47399-0.529998 3.567986-0.755997 24.441904a28.329889 28.329889 0 0 0 28.331889 28.643888h422.648349v189.38126c0 15.649939 12.68795 28.333889 28.33389 28.33389s28.333889-12.68595 28.333889-28.33389v-189.38126h423.090347c15.645939 0 28.333889-12.68595 28.33389-28.333889v-12.551951c0-3.121988-0.969996-10.835958-1.019996-11.163956a25.003902 25.003902 0 0 0-0.108-0.637998c-8.879965-48.391811-24.111906-95.653626-45.341823-140.81745 1.337995-1.095996 2.65999-2.177991 4.037984-3.319987 29.907883-24.829903 67.427737-59.817766 83.045676-83.567673 11.343956-17.259933 26.181898-44.653826 24.117906-83.163676zM273.092933 452.958231c0.016-0.639998 0.012-1.279995 0.028-1.921993 0.08-2.821989 0.215999-5.641978 0.331999-8.463967 0.143999-3.533986 0.283999-7.063972 0.483998-10.591958 0.163999-2.863989 0.379999-5.723978 0.583998-8.585967 0.243999-3.473986 0.489998-6.943973 0.789997-10.409959 0.249999-2.881989 0.543998-5.753978 0.833996-8.629967 0.341999-3.431987 0.691997-6.861973 1.089996-10.281959 0.333999-2.877989 0.705997-5.749978 1.075996-8.619967 0.439998-3.391987 0.889997-6.779974 1.381994-10.15796 0.415998-2.867989 0.863997-5.725978 1.319995-8.579966 0.535998-3.353987 1.087996-6.703974 1.671994-10.041961a639.263503 639.263503 0 0 1 5.297979-26.805896c0.721997-3.285987 1.475994-6.555974 2.249991-9.815961 0.651997-2.753989 1.313995-5.505978 2.003992-8.239968a592.217687 592.217687 0 0 1 2.537991-9.689962c0.725997-2.693989 1.449994-5.385979 2.211991-8.057969a608.937621 608.937621 0 0 1 2.827989-9.571962c0.795997-2.62599 1.583994-5.255979 2.41199-7.85797a580.907731 580.907731 0 0 1 3.127988-9.451963c0.855997-2.53799 1.701993-5.08598 2.59199-7.59997 1.113996-3.149988 2.279991-6.255976 3.445987-9.361963 0.911996-2.43399 1.803993-4.883981 2.745989-7.289972 1.231995-3.153988 2.52399-6.247976 3.807985-9.349963 0.945996-2.283991 1.867993-4.593982 2.839989-6.847974 1.387995-3.215987 2.839989-6.363975 4.281983-9.523962 0.943996-2.067992 1.857993-4.167984 2.823989-6.209976 1.633994-3.451987 3.339987-6.817973 5.03998-10.18996 0.841997-1.667993 1.649994-3.379987 2.507991-5.031981a429.918321 429.918321 0 0 1 7.983968-14.671942c39.959844-70.011727 90.755645-111.811563 135.88947-111.811564 45.159824 0 95.959625 41.745837 135.891469 111.671564a427.390331 427.390331 0 0 1 7.981969 14.659943c0.867997 1.663994 1.679993 3.391987 2.52999 5.07398 1.691993 3.353987 3.391987 6.703974 5.01798 10.13596 0.973996 2.057992 1.897993 4.175984 2.847989 6.259976 1.433994 3.139988 2.877989 6.269976 4.255983 9.469963 0.977996 2.265991 1.901993 4.583982 2.849989 6.875973 1.279995 3.093988 2.56999 6.181976 3.799985 9.327964 0.943996 2.413991 1.841993 4.873981 2.75599 7.315971 1.157995 3.095988 2.319991 6.187976 3.431986 9.323964 0.895997 2.53399 1.747993 5.09998 2.60999 7.65597a561.127808 561.127808 0 0 1 3.105988 9.391963c0.835997 2.62399 1.629994 5.275979 2.43199 7.925969a587.617705 587.617705 0 0 1 2.807989 9.499963c0.767997 2.697989 1.501994 5.417979 2.231992 8.139968 0.857997 3.189988 1.705993 6.391975 2.51599 9.613963a702.087257 702.087257 0 0 1 4.251983 18.055929 648.653466 648.653466 0 0 1 5.31598 26.917895c0.577998 3.303987 1.123996 6.617974 1.653993 9.941961 0.461998 2.891989 0.911996 5.785977 1.333995 8.689966 0.487998 3.343987 0.931996 6.697974 1.367995 10.055961 0.375999 2.909989 0.753997 5.819977 1.089995 8.737966 0.389998 3.385987 0.735997 6.783974 1.075996 10.17996 0.291999 2.911989 0.589998 5.821977 0.841997 8.741966 0.293999 3.427987 0.537998 6.865973 0.781997 10.30196 0.205999 2.903989 0.425998 5.805977 0.589997 8.711966 0.201999 3.487986 0.333999 6.983973 0.477999 10.477959 0.12 2.861989 0.257999 5.725978 0.337998 8.591966 0.018 0.637998 0.014 1.275995 0.028 1.911993h-412.438389v0.006z m53.191792-348.382639c-0.201999 0.259999-0.395998 0.541998-0.597997 0.803996a380.682513 380.682513 0 0 0-7.281972 9.811962c-0.447998 0.623998-0.885997 1.259995-1.331995 1.889993a407.240409 407.240409 0 0 0-6.479974 9.421963c-0.361999 0.543998-0.731997 1.075996-1.093996 1.623994a438.320288 438.320288 0 0 0-6.915973 10.839957c-0.503998 0.815997-1.005996 1.639994-1.507994 2.461991a472.164156 472.164156 0 0 0-6.865973 11.587954 502.678036 502.678036 0 0 0-8.405967 15.37994c-0.161999 0.307999-0.327999 0.609998-0.489999 0.917997a521.729962 521.729962 0 0 0-7.62397 15.22194c-0.249999 0.517998-0.507998 1.031996-0.755997 1.551994a540.623888 540.623888 0 0 0-6.969973 15.211941c-0.293999 0.671997-0.597998 1.339995-0.889996 2.011992a568.623779 568.623779 0 0 0-6.403975 15.31794l-0.929996 2.311991a578.339741 578.339741 0 0 0-5.895977 15.521939l-0.897997 2.479991a606.78763 606.78763 0 0 0-5.431979 15.807938l-0.821996 2.52199a622.217569 622.217569 0 0 0-4.995981 16.167937c-0.239999 0.817997-0.473998 1.637994-0.711997 2.45599a631.849532 631.849532 0 0 0-4.577982 16.617935c-0.191999 0.739997-0.379999 1.483994-0.569998 2.227992a673.38737 673.38737 0 0 0-4.185984 17.189933c-0.137999 0.599998-0.265999 1.203995-0.401998 1.803992a666.745396 666.745396 0 0 0-3.801985 17.92993l-0.205999 1.089996a685.951321 685.951321 0 0 0-3.441987 18.941926 678.223351 678.223351 0 0 0-2.883989 19.005926c-0.056 0.415998-0.122 0.827997-0.177999 1.243995a697.121277 697.121277 0 0 0-2.257991 18.431928c-0.074 0.665997-0.151999 1.327995-0.223999 1.991992a717.209198 717.209198 0 0 0-1.691994 18.07993c-0.068 0.829997-0.141999 1.657994-0.203999 2.48799-0.461998 5.941977-0.841997 11.899954-1.157995 17.87593-0.048 0.935996-0.102 1.869993-0.148 2.805989a709.261229 709.261229 0 0 0-0.643997 17.779931c-0.012 0.517998-0.046 1.033996-0.056 1.551994H59.239769C92.661638 295.958844 197.745228 164.723357 326.284725 104.575592zM899.394487 452.958231H742.2771c-0.012-0.575998-0.046-1.143996-0.059999-1.717994a732.12314 732.12314 0 0 0-0.551998-15.989937c-0.034-0.707997-0.076-1.413994-0.11-2.121992-0.255999-5.15198-0.559998-10.29196-0.925996-15.41594-0.046-0.631998-0.082-1.263995-0.128-1.895992a720.927184 720.927184 0 0 0-1.361994-15.925938c-0.1-1.033996-0.197999-2.067992-0.303999-3.101988a704.813247 704.813247 0 0 0-1.739993-15.635939c-0.108-0.871997-0.223999-1.739993-0.333999-2.60999a691.947297 691.947297 0 0 0-2.167992-15.787938c-0.028-0.177999-0.052-0.357999-0.075999-0.535998-0.801997-5.321979-1.679993-10.611959-2.60199-15.883938-0.163999-0.937996-0.323999-1.875993-0.489998-2.813989a688.983309 688.983309 0 0 0-2.883989-15.149941c-0.195999-0.969996-0.399998-1.935992-0.597998-2.903988a663.853407 663.853407 0 0 0-3.339986-15.33794l-0.066-0.305999c1.163995 0.977996 2.317991 1.937992 3.465986 2.883988 67.507736 55.853782 86.303663 55.853782 94.331632 55.853782 3.393987 0 8.707966-0.016 18.615927-4.077984a60.721763 60.721763 0 0 0 1.987992-0.841996 121.809524 121.809524 0 0 0 10.021961-4.969981l0.09-0.05a258.63099 258.63099 0 0 0 4.119984-2.339991l1.085995-0.637997c2.46799-1.459994 5.08798-3.073988 7.89597-4.881981 14.665943 33.061871 25.797899 67.281737 33.24187 102.197601zM952.33628 198.101226c-13.701946 20.833919-57.431776 60.465764-92.009641 87.20766-0.151999 0.114-0.319999 0.205999-0.473998 0.323998-20.975918 16.051937-32.457873 22.607912-37.627853 25.149902-0.379999-0.177999-0.801997-0.399998-1.207995-0.599998-0.457998-0.229999-0.895997-0.439998-1.385995-0.697997-0.429998-0.229999-0.903996-0.501998-1.353994-0.749997-0.535998-0.297999-1.055996-0.577998-1.623994-0.905996-0.441998-0.255999-0.923996-0.551998-1.381995-0.827997-0.625998-0.373999-1.235995-0.731997-1.889992-1.135996-0.415998-0.257999-0.863997-0.549998-1.293995-0.817997-0.745997-0.469998-1.479994-0.929996-2.257991-1.435994-0.361999-0.235999-0.747997-0.497998-1.115996-0.739997-0.877997-0.577998-1.753993-1.153995-2.67199-1.773993-0.331999-0.223999-0.681997-0.473998-1.019996-0.701997a326.478725 326.478725 0 0 1-2.997988-2.065992c-0.287999-0.201999-0.591998-0.421998-0.883996-0.625998-1.089996-0.767997-2.187991-1.543994-3.317987-2.357991-0.289999-0.205999-0.591998-0.433998-0.883997-0.643997a642.897489 642.897489 0 0 1-3.533986-2.57799l-0.385999-0.289999a519.369971 519.369971 0 0 1-4.155983-3.107988c-0.122-0.09-0.245999-0.189999-0.367999-0.279999-1.419994-1.075996-2.855989-2.169992-4.309983-3.291987l-0.331999-0.257999a671.113378 671.113378 0 0 1-4.601982-3.583986c-17.705931-13.925946-37.213855-30.65988-53.65379-46.277819a535.11791 535.11791 0 0 1-8.653967-8.401967l-0.467998-0.469998c-1.215995-1.211995-2.415991-2.419991-3.577986-3.605986l-0.477998-0.495998c-1.139996-1.167995-2.261991-2.325991-3.337987-3.461987-0.353999-0.373999-0.681997-0.733997-1.031996-1.105996-0.861997-0.917996-1.727993-1.837993-2.54999-2.731989-0.419998-0.455998-0.801997-0.891997-1.207995-1.343995-0.711997-0.787997-1.439994-1.583994-2.113992-2.35199-0.405998-0.461998-0.769997-0.901996-1.163995-1.353995-0.631998-0.731997-1.277995-1.469994-1.869993-2.177992-0.393998-0.469998-0.739997-0.911996-1.113996-1.371994-0.543998-0.665997-1.107996-1.339995-1.611993-1.983993-0.393998-0.497998-0.733997-0.965996-1.101996-1.449994-0.433998-0.569998-0.891997-1.153995-1.291995-1.699993-0.739997-1.017996-1.421994-1.993992-2.041992-2.935989-3.541986-5.377979-6.413975-10.503959-8.659966-15.535939-4.487982-10.061961-6.471975-19.739923-6.321976-30.261882 0.014-1.051996 0.052-2.113992 0.108-3.181987l0.002-0.046c0.104-1.909993 0.307999-3.795985 0.577998-5.661978 0.11-0.759997 0.271999-1.507994 0.407998-2.261991 0.201999-1.105996 0.405998-2.209991 0.659998-3.295987 0.205999-0.871997 0.449998-1.735993 0.693997-2.60199 0.269999-0.959996 0.545998-1.917993 0.857997-2.857989a66.63974 66.63974 0 0 1 2.075991-5.439979c0.313999-0.725997 0.631998-1.447994 0.971997-2.161991a65.699743 65.699743 0 0 1 1.745993-3.379987c0.263999-0.481998 0.517998-0.969996 0.793997-1.445995 0.885997-1.517994 1.823993-3.005988 2.827989-4.439982 0.036-0.054 0.068-0.108 0.103999-0.158 11.271956-16.037937 29.447885-26.599896 49.381807-26.599896 27.441893 0 52.917793 28.787888 60.355765 39.777845a28.335889 28.335889 0 0 0 23.219909 12.66195l0.385998 0.002a28.339889 28.339889 0 0 0 23.17391-12.029953c7.377971-10.483959 34.375866-40.413842 60.759763-40.413842 31.915875 0 59.325768 27.069894 61.109761 60.351765 0.931996 17.305932-3.377987 31.503877-14.875942 48.993808z"  /></svg>