<?xml version="1.0" standalone="no"?><!DOCTYPE svg PUBLIC "-//W3C//DTD SVG 1.1//EN" "http://www.w3.org/Graphics/SVG/1.1/DTD/svg11.dtd"><svg class="icon" width="200px" height="200.00px" viewBox="0 0 1024 1024" version="1.1" xmlns="http://www.w3.org/2000/svg"><path fill="#a8a8a8" d="M0 146.724571C0 65.682286 65.609143 0 146.724571 0h730.550858C958.317714 0 1024 65.609143 1024 146.724571v730.550858A146.651429 146.651429 0 0 1 877.275429 1024H146.724571A146.651429 146.651429 0 0 1 0 877.275429V146.724571z m772.681143 492.251429c-57.636571 0-104.374857 48.347429-104.374857 107.885714 0 59.611429 46.738286 107.958857 104.374857 107.958857 57.490286 0 104.228571-48.274286 104.228571-107.958857 0-59.538286-46.738286-107.885714-104.228571-107.885714z m-521.508572-0.438857c-57.490286 0-104.228571 48.274286-104.228571 107.885714 0 59.611429 46.738286 107.958857 104.228571 107.958857 57.636571 0 104.374857-48.274286 104.374858-107.958857 0-59.611429-46.738286-107.885714-104.374858-107.885714z m252.050286-2.925714c-57.563429 0-104.228571 48.274286-104.228571 107.885714 0 59.611429 46.665143 107.958857 104.228571 107.958857s104.228571-48.274286 104.228572-107.958857c0-59.611429-46.665143-107.885714-104.228572-107.885714zM263.314286 514.56c0-11.849143 8.192-21.504 18.285714-21.504h198.509714v95.597714h50.176V493.056h198.948572c9.947429 0 18.285714 9.874286 18.285714 21.504v74.093714h50.249143V514.56a68.973714 68.973714 0 0 0-68.461714-69.339429H530.285714v-86.308571A107.373714 107.373714 0 0 0 607.451429 254.537143c0-59.538286-46.665143-107.812571-104.228572-107.812572s-104.228571 48.274286-104.228571 107.812572c0 51.419429 34.669714 94.354286 81.115428 105.325714v85.284572H281.526857a68.973714 68.973714 0 0 0-68.388571 69.339428v74.093714H263.314286V514.56z" /></svg>