<?xml version="1.0" standalone="no"?><!DOCTYPE svg PUBLIC "-//W3C//DTD SVG 1.1//EN" "http://www.w3.org/Graphics/SVG/1.1/DTD/svg11.dtd"><svg class="icon" width="200px" height="200.00px" viewBox="0 0 1024 1024" version="1.1" xmlns="http://www.w3.org/2000/svg"><path fill="#a8a8a8" d="M880 192 144 192c-44.112 0-80 35.888-80 80l0 480c0 44.112 35.888 80 80 80l736 0c44.112 0 80-35.888 80-80L960 272C960 227.888 924.112 192 880 192zM928 752c0 26.464-21.536 48-48 48L144 800c-26.464 0-48-21.536-48-48L96 272c0-26.464 21.536-48 48-48l736 0c26.464 0 48 21.536 48 48L928 752zM806.512 357.696 512 574.704 217.488 357.696c-7.12-5.248-17.136-3.728-22.368 3.392s-3.712 17.136 3.392 22.368l304 224c0.528 0.384 1.12 0.544 1.664 0.864 0.528 0.304 1.008 0.56 1.552 0.8 2.016 0.864 4.112 1.456 6.24 1.456 0 0 0.016 0 0.016 0s0.016 0 0.016 0c2.128 0 4.224-0.592 6.24-1.456 0.56-0.24 1.04-0.512 1.584-0.816 0.544-0.304 1.136-0.464 1.648-0.848l304-224c7.12-5.248 8.64-15.264 3.392-22.368C823.664 353.968 813.584 352.464 806.512 357.696z" /></svg>