<?xml version="1.0" standalone="no"?><!DOCTYPE svg PUBLIC "-//W3C//DTD SVG 1.1//EN" "http://www.w3.org/Graphics/SVG/1.1/DTD/svg11.dtd"><svg class="icon" width="200px" height="200.00px" viewBox="0 0 1024 1024" version="1.1" xmlns="http://www.w3.org/2000/svg"><path fill="#a8a8a8" d="M903.552 632.448c5.12 0 10.112-0.256 15.04-0.896C977.984 624.128 1024 573.44 1024 512c0-66.56-53.952-120.448-120.448-120.448S783.04 445.44 783.04 512c0 35.968 15.808 68.288 40.832 90.368L0 602.368l0 30.144L903.552 632.512zM903.552 632.448l15.04 0L918.592 631.552C913.664 632.192 908.608 632.448 903.552 632.448zM903.552 1024c5.12 0 10.112-0.256 15.04-0.896l0-29.248-15.04 0c-49.792 0-90.368-40.576-90.368-90.368s40.576-90.368 90.368-90.368 90.368 40.576 90.368 90.368-40.576 90.368-90.368 90.368l15.04 0 0 29.248C977.984 1015.68 1024 964.992 1024 903.552c0-66.56-53.952-120.448-120.448-120.448s-120.448 53.952-120.448 120.448c0 35.968 15.808 68.288 40.832 90.368L0 993.92 0 1024 903.552 1024zM903.552 1024l15.04 0 0-0.896C913.664 1023.744 908.608 1024 903.552 1024zM783.04 120.448c0 35.968 15.808 68.288 40.832 90.368L0 210.816l0 30.144 903.552 0c66.56 0 120.448-53.952 120.448-120.448S970.048 0 903.552 0 783.04 53.952 783.04 120.448z" /></svg>