<?xml version="1.0" standalone="no"?><!DOCTYPE svg PUBLIC "-//W3C//DTD SVG 1.1//EN" "http://www.w3.org/Graphics/SVG/1.1/DTD/svg11.dtd"><svg class="icon" width="200px" height="200.00px" viewBox="0 0 1024 1024" version="1.1" xmlns="http://www.w3.org/2000/svg"><path fill="#a8a8a8" d="M129.967687 458.527323h163.727613v-163.727613h163.728829V131.070881c0-30.141401-24.43447-54.577087-54.575871-54.577087H129.967687C99.82507 76.493794 75.3906 100.928264 75.3906 131.070881v272.880571c0.001216 30.141401 24.435686 54.575871 54.577087 54.575871z m-10.343508-337.79995h293.567587v129.839974h-109.152958c-30.141401 0-54.575871 24.43447-54.575871 54.575871v109.151742H119.624179V120.727373z m228.648208 283.224079v218.3047c0 30.141401 24.43447 54.577087 54.575871 54.577087h218.3047c30.141401 0 54.574655-24.43447 54.574655-54.577087V403.951452c0-30.141401-24.433254-54.575871-54.574655-54.575871H402.847042c-30.140185 0-54.574655 24.43447-54.574655 54.575871z m98.808234-10.343508h119.496466c30.141401 0 64.919379 24.43447 64.919379 54.575871v119.496466c0 30.141401-34.777978 64.920595-64.919379 64.920596h-119.496466c-30.141401 0-54.577087-34.777978-54.577087-64.920596v-119.49525c0.001216-30.142617 24.435686-54.577087 54.577087-54.577087z m446.952908 174.072337H730.3047v163.728829h-163.727613v163.727613c0 30.141401 24.433254 54.577087 54.575871 54.577088h272.880571c30.141401 0 54.575871-24.43447 54.575871-54.577088v-272.879354c0-30.142617-24.43447-54.577087-54.575871-54.577088z m10.343508 337.798734H621.152958V775.640257h109.151742c30.141401 0 44.232363-14.090962 44.232363-44.233579v-119.496466h129.839974v293.568803z m-10.343508-828.984005H621.152958c-30.142617 0-54.575871 24.43447-54.575871 54.577087v163.728829h163.727613v163.727613h163.728829c30.141401 0 54.575871-24.43447 54.575871-54.577087V131.070881c0-30.141401-24.43447-54.575871-54.575871-54.575871z m10.343508 337.79995H774.537063v-109.151742c0-30.141401-14.090962-54.577087-44.232363-54.577087h-119.496466V120.727373h293.567587l0.001216 293.567587zM293.696516 567.680281H129.967687c-30.141401 0-54.577087 24.43447-54.577087 54.575871v272.880571c0 30.141401 24.43447 54.575871 54.577087 54.575871h272.880571c30.141401 0 54.577087-24.43447 54.577087-54.575871V731.407894H293.696516v-163.727613zM413.191766 775.641473v129.838758H119.624179V611.912644H249.462937v129.839975c0 30.141401 24.43447 33.888855 54.577087 33.888854h109.151742z"  /></svg>