<?xml version="1.0" standalone="no"?><!DOCTYPE svg PUBLIC "-//W3C//DTD SVG 1.1//EN" "http://www.w3.org/Graphics/SVG/1.1/DTD/svg11.dtd"><svg class="icon" width="200px" height="200.00px" viewBox="0 0 1024 1024" version="1.1" xmlns="http://www.w3.org/2000/svg"><path fill="#a8a8a8" d="M862.815 34.467h-700.935c-17.609 0-127.441 0-127.441 127.441v700.898c0 127.467 127.441 127.467 127.441 127.467h700.937c127.441 0 127.441-127.467 127.441-127.467v-700.898c-0.001-127.441-109.821-127.441-127.442-127.441M926.535 862.806c0 0 0 63.719-63.721 63.719l-240.331-250.32-131.043 113.81-196.641-182.066-196.629 182.066v-628.108c0-63.721 46.099-63.721 63.708-63.721h700.937c17.621 0 63.721 0 63.721 63.721v700.899zM671.653 288.857c-70.496 0-127.635 57.242-127.635 127.855 0 70.561 57.14 127.829 127.635 127.829 70.459 0 127.635-57.268 127.635-127.829 0-70.613-57.177-127.855-127.635-127.855z" /></svg>